<svg xmlns="http://www.w3.org/2000/svg" width="24" height="24" viewBox="0 0 24 24" fill="none">
<g clip-path="url(#clip0_1401_3389)">
<path d="M20.515 13.754C20.5134 13.9869 20.4202 14.2098 20.2555 14.3745C20.0908 14.5392 19.8679 14.6324 19.635 14.634H16.087C15.854 14.6327 15.6309 14.5396 15.4662 14.3748C15.3014 14.2101 15.2083 13.987 15.207 13.754C15.2086 13.5211 15.3018 13.2982 15.4665 13.1335C15.6312 12.9688 15.8541 12.8756 16.087 12.874H19.635C19.8677 12.8761 20.0903 12.9695 20.2549 13.1341C20.4195 13.2986 20.5129 13.5213 20.515 13.754ZM8.13898 13.754C8.13767 13.987 8.04453 14.2101 7.87978 14.3748C7.71504 14.5396 7.49197 14.6327 7.25898 14.634H3.71098C3.478 14.6327 3.25493 14.5396 3.09018 14.3748C2.92543 14.2101 2.83229 13.987 2.83098 13.754C2.83255 13.5211 2.92577 13.2982 3.09046 13.1335C3.25516 12.9688 3.47808 12.8756 3.71098 12.874H7.25898C7.49171 12.8758 7.71438 12.9692 7.87885 13.1338C8.04333 13.2985 8.13641 13.5213 8.13798 13.754H8.13898ZM6.29898 5.587H17.703L19.102 9.149C19.08 9.149 19.058 9.145 19.033 9.145H4.89898L6.29898 5.587ZM23.979 8.293C23.9211 7.94565 23.7279 7.63541 23.4416 7.43033C23.1554 7.22525 22.7995 7.14206 22.452 7.199L22.46 7.198L20.277 7.554C20.245 7.56002 20.2135 7.56872 20.183 7.58L20.188 7.578L18.782 4H5.21598L3.80998 7.578C3.78159 7.5682 3.75251 7.56051 3.72298 7.555L1.53798 7.198C1.19267 7.14377 0.839886 7.22746 0.555719 7.43099C0.271553 7.63453 0.0787792 7.94161 0.0189809 8.286L0.0179809 8.294C-0.0365118 8.63935 0.0470635 8.99227 0.250647 9.2765C0.45423 9.56073 0.761472 9.75344 1.10598 9.813L1.11398 9.814L2.38498 10.023C1.57812 10.7975 1.11073 11.8599 1.08498 12.978V19.069H5.48498V16.769H17.914V19.069H22.314V15.821C22.332 15.745 22.342 15.658 22.342 15.568V12.982C22.3177 11.9041 21.884 10.8758 21.129 10.106L21.13 10.107L22.896 9.817C23.2431 9.75893 23.553 9.56555 23.7577 9.27929C23.9624 8.99302 24.0452 8.63724 23.988 8.29L23.989 8.298L23.979 8.293Z" fill="white"/>
</g>
<defs>
<clipPath id="clip0_1401_3389">
<rect width="24" height="24" fill="white"/>
</clipPath>
</defs>
</svg>