<svg width="25" height="16" viewBox="0 0 25 16" fill="none" xmlns="http://www.w3.org/2000/svg">
<path d="M21.1817 9.98789C21.1802 10.2208 21.0869 10.4437 20.9222 10.6084C20.7576 10.7731 20.5346 10.8663 20.3017 10.8679H16.7537C16.5207 10.8666 16.2977 10.7734 16.1329 10.6087C15.9682 10.4439 15.875 10.2209 15.8737 9.98789C15.8753 9.75498 15.9685 9.53206 16.1332 9.36737C16.2979 9.20268 16.5208 9.10946 16.7537 9.10789H20.3017C20.5345 9.10997 20.7571 9.20336 20.9217 9.36794C21.0863 9.53252 21.1796 9.75514 21.1817 9.98789ZM8.80573 9.98789C8.80442 10.2209 8.71128 10.4439 8.54653 10.6087C8.38178 10.7734 8.15871 10.8666 7.92573 10.8679H4.37773C4.14474 10.8666 3.92167 10.7734 3.75693 10.6087C3.59218 10.4439 3.49904 10.2209 3.49773 9.98789C3.4993 9.75498 3.59252 9.53206 3.75721 9.36737C3.9219 9.20268 4.14482 9.10946 4.37773 9.10789H7.92573C8.15846 9.10972 8.38112 9.20305 8.5456 9.36772C8.71008 9.53238 8.80316 9.75515 8.80473 9.98789H8.80573ZM6.96573 1.82089H18.3697L19.7687 5.38289C19.7467 5.38289 19.7247 5.37889 19.6997 5.37889H5.56573L6.96573 1.82089ZM24.6457 4.52689C24.5879 4.17953 24.3946 3.8693 24.1084 3.66422C23.8221 3.45914 23.4662 3.37594 23.1187 3.43289L23.1267 3.43189L20.9437 3.78789C20.9117 3.79391 20.8803 3.80261 20.8497 3.81389L20.8547 3.81189L19.4487 0.233887H5.88273L4.47673 3.81189C4.44834 3.80209 4.41926 3.7944 4.38973 3.78889L2.20473 3.43189C1.85942 3.37766 1.50663 3.46134 1.22247 3.66488C0.938301 3.86842 0.745527 4.1755 0.685729 4.51989L0.684729 4.52789C0.630236 4.87323 0.713812 5.22615 0.917395 5.51038C1.12098 5.79461 1.42822 5.98733 1.77273 6.04689L1.78073 6.04789L3.05173 6.25689C2.24487 7.03135 1.77748 8.09378 1.75173 9.21189V15.3029H6.15173V13.0029H18.5807V15.3029H22.9807V12.0549C22.9987 11.9789 23.0087 11.8919 23.0087 11.8019V9.21589C22.9844 8.13794 22.5507 7.10966 21.7957 6.33989L21.7967 6.34089L23.5627 6.05089C23.9098 5.99282 24.2197 5.79944 24.4245 5.51317C24.6292 5.22691 24.712 4.87113 24.6547 4.52389L24.6557 4.53189L24.6457 4.52689Z" fill="#121617"/>
</svg>
